<svg width="34" height="36" viewBox="0 0 34 36" fill="none" xmlns="http://www.w3.org/2000/svg">
<g clip-path="url(#clip0_217_489)">
<path d="M16.6149 -1.57468e-05C14.8473 -0.0898251 13.0819 0.221171 11.4317 0.913063C9.78143 1.60496 8.28273 2.6625 7.03149 4.018C5.78026 5.3735 4.80406 6.9971 4.16539 8.78485C3.52672 10.5726 3.23965 12.4851 3.32255 14.4C3.32255 18.936 6.64563 23.4 8.30717 25.2C9.96871 27 16.6149 36 16.6149 36C16.6149 36 23.261 27 24.9226 25.2C26.5841 23.4 29.9072 18.936 29.9072 14.4C29.9901 12.4851 29.703 10.5726 29.0643 8.78485C28.4257 6.9971 27.4495 5.3735 26.1982 4.018C24.947 2.6625 23.4483 1.60496 21.7981 0.913063C20.1478 0.221171 18.3824 -0.0898251 16.6149 -1.57468e-05ZM16.6149 20.25C15.5468 20.25 14.5028 19.9069 13.6148 19.2641C12.7268 18.6213 12.0346 17.7076 11.6259 16.6387C11.2172 15.5697 11.1103 14.3935 11.3186 13.2587C11.527 12.1239 12.0413 11.0815 12.7965 10.2634C13.5517 9.44527 14.5139 8.88811 15.5614 8.66239C16.6089 8.43667 17.6946 8.55252 18.6814 8.99529C19.6681 9.43806 20.5114 10.1879 21.1048 11.1499C21.6982 12.1119 22.0149 13.243 22.0149 14.4C22.0149 15.1682 21.8752 15.9289 21.6038 16.6387C21.3324 17.3484 20.9347 17.9933 20.4332 18.5366C19.9318 19.0798 19.3365 19.5107 18.6814 19.8047C18.0262 20.0987 17.324 20.25 16.6149 20.25Z" fill="#E31B1B"/>
</g>
<defs>
<clipPath id="clip0_217_489">
<rect width="33.2308" height="36" fill="white"/>
</clipPath>
</defs>
</svg>
